<svg xmlns="http://www.w3.org/2000/svg" viewBox="0 0 24 24" fill="none">
  <rect width="24" height="24" rx="4" fill="#FF5A5A"/>
  <path d="M5 9.5C5 8.12 6.12 7 7.5 7H10v2H7.5C7.22 9 7 9.22 7 9.5S7.22 10 7.5 10h2C9.88 10 11 11.12 11 12.5S9.88 15 8.5 15H5v-2h3.5c.28 0 .5-.22.5-.5s-.22-.5-.5-.5h-2C5.12 12 4 10.88 4 9.5z" fill="white"/>
  <path d="M12 9.5c0-1.38 1.12-2.5 2.5-2.5H18v2h-3.5c-.28 0-.5.22-.5.5s.22.5.5.5h2c1.38 0 2.5 1.12 2.5 2.5S17.88 15 16.5 15H13v-2h3.5c.28 0 .5-.22.5-.5s-.22-.5-.5-.5h-2C13.12 12 12 10.88 12 9.5z" fill="white"/>
</svg>